<?xml version="1.0" encoding="UTF-8" standalone="no"?>
<svg
   width="128"
   height="128"
   viewBox="0 0 128 128"
   fill="none"
   version="1.1"
   id="svg13"
   sodipodi:docname="icon.svg"
   inkscape:version="1.1 (c4e8f9ed74, 2021-05-24)"
   xmlns:inkscape="http://www.inkscape.org/namespaces/inkscape"
   xmlns:sodipodi="http://sodipodi.sourceforge.net/DTD/sodipodi-0.dtd"
   xmlns="http://www.w3.org/2000/svg"
   xmlns:svg="http://www.w3.org/2000/svg">
  <sodipodi:namedview
     id="namedview15"
     pagecolor="#ffffff"
     bordercolor="#999999"
     borderopacity="1"
     inkscape:pageshadow="0"
     inkscape:pageopacity="0"
     inkscape:pagecheckerboard="0"
     showgrid="false"
     inkscape:zoom="5.4921875"
     inkscape:cx="63.908962"
     inkscape:cy="63.908962"
     inkscape:window-width="1920"
     inkscape:window-height="1052"
     inkscape:window-x="0"
     inkscape:window-y="28"
     inkscape:window-maximized="1"
     inkscape:current-layer="svg13" />
  <g
     clip-path="url(#clip0)"
     id="g6"
     transform="matrix(1.0810811,0,0,1.0810811,-5.729731,-5.1891904)">
    <path
       d="M 109.909,23.5294 C 104.309,21.7588 98.1532,21 92.25,21 82.4114,21 71.8159,23.0235 64.5,28.5882 57.1841,23.0235 46.5886,21 36.75,21 26.9114,21 16.3159,23.0235 9,28.5882 V 102.7 c 0,1.265 1.2614,2.529 2.5227,2.529 0.5046,0 0.7568,-0.253 1.2614,-0.253 6.8114,-3.288 16.65,-5.5642 23.9659,-5.5642 9.8386,0 20.4341,2.0232 27.75,7.5882 6.8114,-4.3 19.1727,-7.5882 27.75,-7.5882 8.325,0 16.902,1.5172 23.966,5.3122 0.504,0.252 0.757,0.252 1.261,0.252 1.262,0 2.523,-1.264 2.523,-2.529 V 28.5882 c -3.027,-2.2764 -6.307,-3.7941 -10.091,-5.0588 z m 0,68.2941 c -5.55,-1.7706 -11.6045,-2.5294 -17.659,-2.5294 -8.5773,0 -20.9386,3.2883 -27.75,7.5883 V 38.7059 c 6.8114,-4.3 19.1727,-7.5883 27.75,-7.5883 6.0545,0 12.109,0.7589 17.659,2.5295 z"
       fill="#343434"
       id="path4" />
  </g>
  <defs
     id="defs11">
    <clipPath
       id="clip0">
      <rect
         width="128"
         height="128"
         rx="12"
         fill="white"
         id="rect8" />
    </clipPath>
  </defs>
</svg>
